<?xml version="1.0" standalone="no"?>
<!DOCTYPE svg PUBLIC "-//W3C//DTD SVG 20010904//EN"
 "http://www.w3.org/TR/2001/REC-SVG-20010904/DTD/svg10.dtd">
<svg version="1.0" xmlns="http://www.w3.org/2000/svg"
 width="512.000000pt" height="512.000000pt" viewBox="0 0 512.000000 512.000000"
 preserveAspectRatio="xMidYMid meet">
<metadata>
Created by potrace 1.11, written by Peter Selinger 2001-2013
</metadata>
<g transform="translate(0.000000,512.000000) scale(0.100000,-0.100000)"
fill="#000000" stroke="none">
<path d="M805 3093 c-44 -23 -161 -120 -201 -167 -45 -52 -64 -119 -64 -223 0
-115 14 -162 66 -223 24 -28 44 -61 44 -72 0 -12 -18 -44 -40 -73 -55 -72 -70
-120 -70 -231 0 -157 42 -234 149 -274 46 -18 77 -20 310 -20 283 0 312 4 401
59 59 36 92 39 140 10 109 -67 291 -99 451 -79 134 16 187 34 281 95 46 30 92
55 104 55 11 0 46 -18 77 -41 125 -89 264 -125 437 -114 127 9 211 29 293 70
38 19 79 35 92 35 13 0 46 -16 75 -35 28 -19 68 -39 88 -45 50 -13 512 -13
588 1 32 6 82 22 109 35 51 24 203 141 240 185 l20 23 -21 -14 c-12 -8 -42
-30 -67 -47 -80 -57 -127 -64 -454 -63 -161 0 -300 3 -310 7 -39 13 -85 57
-99 94 -9 21 -18 39 -21 39 -2 0 -30 -21 -60 -46 -76 -62 -115 -80 -212 -99
-118 -24 -321 -17 -410 14 -81 28 -162 81 -192 126 -13 19 -31 35 -39 35 -8 0
-46 -27 -83 -60 -38 -33 -85 -69 -106 -79 -100 -52 -353 -68 -494 -32 -88 23
-143 49 -191 91 -34 30 -51 37 -58 22 -8 -17 -116 -100 -143 -109 -18 -6 -141
-8 -320 -5 -283 4 -291 5 -332 28 -66 38 -83 85 -83 228 0 140 11 167 94 239
70 60 75 90 19 114 -91 37 -113 84 -113 243 0 141 10 169 87 241 67 63 79 79
62 79 -8 -1 -27 -8 -44 -17z"/>
<path d="M3543 3098 c-25 -12 -29 -23 -12 -34 6 -3 23 5 37 20 28 28 16 34
-25 14z"/>
<path d="M2678 3084 c-16 -8 -28 -21 -28 -29 0 -23 13 -18 45 15 31 33 25 38
-17 14z"/>
<path d="M2995 3050 c-114 -14 -140 -28 -264 -134 -133 -114 -135 -118 -139
-376 -4 -210 5 -299 37 -350 59 -99 161 -140 341 -140 180 1 240 24 384 147
126 108 121 90 121 413 0 243 -2 279 -18 312 -23 49 -76 91 -140 111 -61 19
-236 28 -322 17z m279 -31 c97 -27 145 -64 168 -127 18 -52 18 -502 0 -553
-35 -100 -129 -139 -332 -139 -191 0 -278 33 -327 123 -16 28 -18 63 -18 282
0 138 3 262 8 277 4 15 22 44 39 64 55 62 122 81 292 83 71 0 147 -4 170 -10z"/>
<path d="M3005 2932 c-52 -12 -94 -44 -115 -89 -18 -38 -20 -63 -20 -230 1
-173 3 -191 23 -232 34 -70 75 -86 217 -86 140 0 181 16 217 85 22 41 23 54
23 232 0 168 -2 193 -20 231 -33 68 -73 88 -193 92 -56 2 -115 1 -132 -3z
m237 -35 c18 -8 42 -24 53 -37 19 -21 20 -36 20 -245 0 -209 -1 -224 -20 -245
-38 -42 -69 -51 -185 -51 -115 0 -147 9 -185 51 -19 21 -20 36 -20 246 l0 224
27 26 c14 15 48 33 75 40 57 17 186 11 235 -9z"/>
<path d="M3027 2802 c-14 -16 -17 -44 -17 -190 l0 -171 26 -20 c42 -33 141
-26 166 13 4 6 8 88 8 182 0 204 0 204 -102 204 -50 0 -69 -4 -81 -18z m10
-299 c-2 -32 -3 -8 -3 52 0 61 1 87 3 58 2 -29 2 -78 0 -110z"/>
<path d="M984 3018 c-16 -12 -57 -46 -91 -76 l-63 -54 0 -99 c0 -90 2 -99 22
-113 14 -10 44 -16 75 -16 l53 0 0 -123 0 -122 -75 -63 -75 -63 0 -97 c0 -63
4 -102 12 -110 9 -9 86 -12 284 -12 l272 0 86 71 86 70 0 103 c0 66 -4 106
-12 114 -7 7 -38 12 -70 12 l-58 0 0 128 0 127 70 58 70 58 0 104 c0 93 -2
105 -19 115 -12 6 -119 10 -279 10 -252 0 -260 -1 -288 -22z m564 -105 l-3
-98 -70 -5 -70 -5 0 -190 0 -190 60 -3 c32 -2 65 -8 72 -14 9 -7 13 -39 13
-98 0 -71 -3 -89 -16 -94 -20 -8 -498 -8 -518 0 -13 5 -16 23 -16 93 0 54 5
92 12 99 7 7 39 12 75 12 l63 0 0 195 0 194 -72 3 -73 3 -3 98 -3 97 276 0
276 0 -3 -97z"/>
<path d="M1097 2924 c-16 -17 11 -24 89 -24 l84 0 0 -274 c0 -151 -3 -281 -6
-290 -5 -13 -22 -16 -85 -16 -46 0 -79 -4 -79 -10 0 -6 65 -10 175 -10 105 0
175 4 175 10 0 5 -35 10 -77 12 l-78 3 0 289 0 288 77 2 c43 0 79 6 80 11 3
11 -344 20 -355 9z"/>
<path d="M1736 2969 c-67 -56 -87 -78 -92 -104 -3 -18 -4 -165 -2 -326 3 -280
4 -296 25 -335 31 -58 93 -108 161 -130 81 -27 303 -27 384 0 63 20 224 145
270 208 42 58 48 108 48 421 0 362 11 337 -150 337 l-109 0 -58 -46 c-32 -26
-75 -63 -95 -82 l-38 -36 0 66 c0 94 -5 98 -145 98 l-113 0 -86 -71z m318 25
c3 -9 6 -133 6 -275 0 -157 4 -268 10 -279 21 -39 139 -45 174 -10 7 7 13 103
16 293 l5 282 115 0 115 0 3 -308 c1 -191 -2 -323 -8 -347 -15 -55 -51 -93
-112 -121 -49 -22 -66 -24 -213 -24 -215 0 -284 23 -329 110 -20 38 -21 58
-24 354 -2 173 -1 320 2 327 4 11 33 14 120 14 95 0 115 -3 120 -16z"/>
<path d="M1930 2658 c0 -240 2 -266 19 -294 33 -53 80 -69 211 -69 130 0 166
13 207 75 22 32 23 40 23 291 0 166 -4 259 -10 259 -6 0 -10 -88 -10 -245 0
-282 -4 -301 -69 -334 -33 -17 -59 -21 -146 -21 -115 0 -148 10 -184 56 -20
26 -21 38 -21 285 0 166 -4 259 -10 259 -6 0 -10 -94 -10 -262z"/>
<path d="M3718 3023 c-66 -44 -148 -121 -157 -147 -17 -44 -15 -743 2 -776
l13 -25 277 -3 c326 -3 313 -6 448 106 119 100 129 120 129 269 0 88 -4 128
-15 151 -15 30 -61 75 -87 85 -9 4 -10 8 -3 14 22 17 35 67 35 131 -1 89 -29
147 -91 182 -43 24 -49 25 -284 28 -217 2 -243 1 -267 -15z m537 -32 c56 -33
75 -74 75 -163 0 -77 -18 -138 -40 -138 -6 0 -10 -7 -10 -15 0 -9 9 -15 25
-15 14 0 38 -14 59 -34 30 -30 35 -44 41 -102 10 -94 -1 -200 -26 -240 -38
-62 -78 -69 -379 -69 l-265 0 -3 398 -2 397 247 -1 c217 0 252 -3 278 -18z"/>
<path d="M3845 2917 c-3 -7 -4 -147 -3 -312 l3 -300 145 -3 c196 -4 246 3 282
38 27 27 28 33 28 123 0 105 -12 133 -70 157 -16 7 -30 13 -30 15 0 1 7 16 16
34 12 24 15 53 13 111 -4 87 -18 111 -78 136 -45 19 -299 20 -306 1z m324 -31
c38 -25 55 -151 26 -206 -21 -41 -68 -52 -209 -48 l-118 3 1 129 c1 71 4 132
6 135 5 9 278 -3 294 -13z m53 -290 c45 -19 58 -51 58 -139 -1 -92 -15 -113
-89 -127 -29 -5 -114 -10 -187 -10 l-134 0 0 145 0 145 159 0 c115 0 168 -4
193 -14z"/>
<path d="M3974 2826 c-3 -7 -4 -38 -2 -67 l3 -54 56 -3 c69 -4 89 12 89 68 0
29 -6 43 -22 54 -28 20 -117 22 -124 2z"/>
<path d="M3970 2470 c0 -66 1 -70 25 -76 38 -10 141 0 159 15 21 18 21 94 0
115 -12 12 -36 16 -100 16 l-84 0 0 -70z"/>
</g>
</svg>
