<?xml version="1.0" standalone="no"?>
<!DOCTYPE svg PUBLIC "-//W3C//DTD SVG 20010904//EN"
 "http://www.w3.org/TR/2001/REC-SVG-20010904/DTD/svg10.dtd">
<svg version="1.0" xmlns="http://www.w3.org/2000/svg"
 width="192.000000pt" height="192.000000pt" viewBox="0 0 192.000000 192.000000"
 preserveAspectRatio="xMidYMid meet">
<metadata>
Created by potrace 1.11, written by Peter Selinger 2001-2013
</metadata>
<g transform="translate(0.000000,192.000000) scale(0.100000,-0.100000)"
fill="#000000" stroke="none">
<path d="M337 1102 c-22 -23 -28 -37 -25 -63 2 -29 7 -35 31 -37 25 -3 27 -6
27 -52 0 -43 -4 -51 -31 -70 -25 -19 -30 -28 -27 -59 l3 -36 104 -3 c98 -3
105 -1 137 23 30 23 34 31 32 68 l-1 42 -4 -42 -4 -43 -105 0 -105 0 3 38 c3
32 7 37 31 40 27 3 27 5 27 72 0 67 0 69 -27 72 -24 3 -29 8 -33 41 l-5 39
-28 -30z"/>
<path d="M583 1095 c0 -22 2 -30 4 -17 2 12 2 30 0 40 -3 9 -5 -1 -4 -23z"/>
<path d="M648 1108 l-28 -20 0 -129 c0 -123 1 -131 24 -154 46 -46 160 -46
228 1 43 30 45 40 4 24 -69 -26 -181 -1 -191 42 -3 13 -6 76 -8 140 l-2 116
-27 -20z"/>
<path d="M811 1104 c-30 -25 -31 -28 -31 -109 0 -64 3 -84 15 -89 37 -14 44 2
47 115 2 60 2 109 1 109 -1 0 -15 -12 -32 -26z"/>
<path d="M1368 1110 l-28 -21 0 -155 0 -154 113 0 c108 0 114 1 146 28 l33 27
-116 -3 -115 -3 -3 151 -3 152 -27 -22z"/>
<path d="M241 1094 c-29 -37 -29 -121 0 -158 22 -27 19 -55 -6 -76 -10 -8 -15
-32 -15 -70 0 -87 13 -95 161 -95 81 0 122 4 131 13 10 10 -9 12 -95 12 -101
0 -109 2 -132 25 -21 20 -25 34 -25 79 0 49 4 58 33 86 23 23 28 33 18 37 -7
3 -22 14 -33 25 -17 17 -20 30 -16 84 2 35 3 64 2 64 -2 0 -12 -12 -23 -26z"/>
<path d="M1022 1091 c-39 -33 -52 -74 -51 -156 0 -86 17 -126 59 -147 68 -34
160 -19 225 36 l30 26 -37 -15 c-89 -36 -195 -8 -211 55 -12 48 -4 195 12 214
20 23 10 19 -27 -13z"/>
<path d="M1135 1048 c-3 -7 -1 -42 3 -78 7 -61 9 -65 32 -65 24 0 25 2 25 75
0 74 0 75 -28 78 -16 2 -29 -2 -32 -10z"/>
<path d="M1490 1040 c0 -15 7 -20 25 -20 18 0 25 5 25 20 0 15 -7 20 -25 20
-18 0 -25 -5 -25 -20z"/>
<path d="M530 1028 c0 -20 1 -21 20 -3 11 10 20 20 20 22 0 1 -9 3 -20 3 -14
0 -20 -7 -20 -22z"/>
<path d="M1490 925 c0 -22 4 -25 35 -25 31 0 35 3 35 25 0 22 -4 25 -35 25
-31 0 -35 -3 -35 -25z"/>
<path d="M915 770 c-18 -20 -18 -21 1 -36 54 -43 185 -60 251 -32 26 11 21 13
-57 18 -65 4 -94 11 -122 28 -21 13 -38 28 -38 33 0 15 -16 10 -35 -11z"/>
<path d="M576 751 c-17 -19 -16 -20 23 -40 47 -24 157 -29 212 -8 32 11 30 12
-58 17 -74 4 -97 9 -122 28 -36 27 -34 26 -55 3z"/>
<path d="M1253 753 l-23 -15 27 -22 c23 -17 44 -22 123 -24 61 -3 113 1 141 9
43 13 42 14 -79 19 -113 5 -125 7 -142 28 -21 26 -19 25 -47 5z"/>
</g>
</svg>
