<?xml version="1.0" standalone="no"?>
<!DOCTYPE svg PUBLIC "-//W3C//DTD SVG 20010904//EN"
 "http://www.w3.org/TR/2001/REC-SVG-20010904/DTD/svg10.dtd">
<svg version="1.0" xmlns="http://www.w3.org/2000/svg"
 width="294.000000pt" height="294.000000pt" viewBox="0 0 294.000000 294.000000"
 preserveAspectRatio="xMidYMid meet">
<metadata>
Created by potrace 1.11, written by Peter Selinger 2001-2013
</metadata>
<g transform="translate(0.000000,294.000000) scale(0.100000,-0.100000)"
fill="#000000" stroke="none">
<path d="M2041 1780 c-13 -11 -19 -20 -14 -20 6 0 18 9 28 20 23 25 17 25 -14
0z"/>
<path d="M466 1773 c-4 -5 -12 -8 -17 -8 -5 0 -9 -3 -9 -7 0 -5 2 -8 5 -8 3 0
9 0 14 0 5 0 11 7 15 15 6 16 3 19 -8 8z"/>
<path d="M1525 1760 c3 -5 8 -10 11 -10 2 0 4 5 4 10 0 6 -5 10 -11 10 -5 0
-7 -4 -4 -10z"/>
<path d="M1810 1750 c0 -5 5 -10 11 -10 5 0 7 5 4 10 -3 6 -8 10 -11 10 -2 0
-4 -4 -4 -10z"/>
<path d="M596 1742 c-3 -5 1 -9 9 -9 8 0 12 4 9 9 -3 4 -7 8 -9 8 -2 0 -6 -4
-9 -8z"/>
<path d="M756 1742 c-3 -5 1 -9 9 -9 8 0 12 4 9 9 -3 4 -7 8 -9 8 -2 0 -6 -4
-9 -8z"/>
<path d="M1066 1742 c-3 -5 1 -9 9 -9 8 0 12 4 9 9 -3 4 -7 8 -9 8 -2 0 -6 -4
-9 -8z"/>
<path d="M1366 1742 c-3 -5 1 -9 9 -9 8 0 12 4 9 9 -3 4 -7 8 -9 8 -2 0 -6 -4
-9 -8z"/>
<path d="M1404 1739 c-4 -7 -3 -10 3 -6 13 8 37 -18 30 -31 -3 -4 -2 -14 2
-21 6 -9 9 -5 9 13 0 31 -32 64 -44 45z"/>
<path d="M1672 1742 c-32 -10 -148 -102 -164 -131 -9 -17 -13 -70 -13 -175 0
-193 13 -218 131 -251 42 -11 144 -7 191 9 64 21 173 121 172 157 0 20 -2 18
-12 -11 -9 -26 -23 -41 -56 -57 -39 -20 -58 -22 -145 -20 -174 5 -191 27 -190
249 1 180 2 183 104 226 28 12 18 14 -18 4z"/>
<path d="M1728 1743 c7 -3 16 -2 19 1 4 3 -2 6 -13 5 -11 0 -14 -3 -6 -6z"/>
<path d="M1875 1739 c4 -5 15 -9 26 -9 24 0 79 -52 79 -74 0 -8 4 -17 10 -21
18 -11 -11 52 -34 74 -23 22 -91 48 -81 30z"/>
<path d="M2246 1742 c-3 -5 1 -9 9 -9 8 0 12 4 9 9 -3 4 -7 8 -9 8 -2 0 -6 -4
-9 -8z"/>
<path d="M2295 1740 c-2 -3 9 -6 25 -6 17 0 27 2 25 5 -8 7 -45 9 -50 1z"/>
<path d="M410 1730 c-8 -6 -10 -10 -5 -10 6 0 -6 -8 -25 -18 -28 -13 -35 -23
-34 -44 1 -15 -2 -25 -6 -23 -8 5 -24 -24 -22 -37 1 -5 -3 -8 -8 -8 -6 0 -5
-6 2 -14 7 -8 18 -12 23 -9 6 2 1 -3 -9 -11 -21 -17 -15 -35 7 -20 7 5 5 2 -5
-8 -22 -20 -23 -32 -3 -24 8 3 15 1 15 -4 0 -10 -15 -14 -34 -11 -5 1 -4 -5 3
-13 7 -8 21 -13 32 -11 11 2 17 0 14 -5 -3 -5 3 -14 12 -20 17 -11 17 -11 1
-6 -20 6 -25 -18 -6 -30 7 -5 8 -3 2 7 -6 10 -2 10 16 -2 14 -9 25 -22 25 -28
0 -6 5 -11 10 -10 13 1 75 57 75 68 0 5 -16 18 -35 30 -19 11 -40 32 -45 46
-16 41 -12 152 6 186 17 34 16 42 -6 29z m-14 -42 c4 -6 3 -8 -4 -4 -6 3 -13
2 -17 -4 -3 -5 -11 -10 -18 -10 -6 0 -2 7 9 15 23 18 21 17 30 3z m-61 -87 c3
-5 2 -12 -3 -15 -5 -3 -9 1 -9 9 0 17 3 19 12 6z"/>
<path d="M527 1699 c-46 -40 -47 -43 -47 -99 0 -62 6 -70 60 -70 l27 0 -1 -71
-1 -71 -44 -37 c-43 -37 -44 -40 -42 -91 1 -29 4 -57 7 -61 3 -5 75 -9 161 -9
l155 0 49 41 c38 31 49 47 48 67 l-2 27 -4 -28 -4 -28 -157 3 -157 3 0 55 0
55 43 3 42 3 0 109 0 109 -42 3 -43 3 0 63 c0 34 0 62 0 62 0 0 -22 -19 -48
-41z"/>
<path d="M876 1733 c7 -4 14 -17 17 -28 5 -16 5 -15 4 4 -1 14 -9 26 -17 28
-10 3 -11 2 -4 -4z"/>
<path d="M998 1704 c-23 -20 -45 -40 -48 -45 -3 -5 -5 -89 -5 -187 1 -205 9
-230 82 -269 35 -18 56 -21 140 -19 67 1 107 7 128 18 48 26 145 122 145 144
-1 13 -5 9 -15 -13 -21 -48 -65 -66 -172 -70 -125 -3 -182 18 -204 76 -11 27
-14 375 -4 391 11 18 -3 10 -47 -26z"/>
<path d="M1180 1711 c4 -16 5 -33 2 -37 -4 -4 -2 -4 4 -1 12 7 6 67 -6 67 -5
0 -5 -13 0 -29z"/>
<path d="M1270 1717 c-14 -12 -40 -34 -58 -50 -19 -15 -29 -27 -23 -27 6 0 11
-5 11 -11 0 -5 -4 -7 -10 -4 -5 3 -10 1 -10 -4 0 -6 4 -11 9 -11 5 0 9 -16 9
-36 0 -25 -3 -33 -9 -23 -6 9 -9 10 -9 2 0 -6 5 -15 10 -18 6 -3 10 -16 9 -28
0 -21 -1 -21 -9 -2 -7 16 -9 17 -9 3 -1 -9 4 -20 9 -23 6 -3 10 -14 10 -23 0
-15 -2 -15 -10 -2 -6 9 -10 10 -10 3 0 -6 5 -15 10 -18 6 -3 10 -14 10 -23 0
-15 -2 -15 -10 -2 -5 8 -10 10 -10 4 0 -17 22 -32 55 -38 56 -10 59 -3 60 171
0 87 4 164 8 171 13 20 -6 14 -33 -11z"/>
<path d="M2124 1726 c-7 -7 -27 -25 -45 -39 l-34 -26 -1 -225 c-1 -123 2 -230
6 -236 6 -9 50 -12 164 -11 85 1 164 4 173 8 10 4 43 26 74 50 47 37 64 58 86
105 2 4 0 9 -5 12 -4 2 -8 -4 -9 -14 -3 -33 -33 -67 -65 -74 -17 -3 -97 -6
-179 -6 l-149 0 -1 33 c-3 136 0 418 6 426 9 15 -8 13 -21 -3z"/>
<path d="M2425 1729 c17 -7 37 -16 45 -22 13 -10 13 -9 0 5 -8 9 -28 19 -45
22 l-30 6 30 -11z"/>
<path d="M1770 1682 c0 -5 7 -9 15 -9 8 0 12 4 9 9 -3 4 -9 8 -15 8 -5 0 -9
-4 -9 -8z"/>
<path d="M1816 1679 c3 -5 15 -9 26 -9 12 0 32 -10 45 -22 13 -12 23 -17 23
-12 0 5 -10 16 -22 24 -27 18 -80 31 -72 19z"/>
<path d="M2485 1625 c0 -35 3 -61 8 -58 9 5 9 94 -1 110 -4 6 -7 -17 -7 -52z"/>
<path d="M648 1673 c12 -2 30 -2 40 0 9 3 -1 5 -23 4 -22 0 -30 -2 -17 -4z"/>
<path d="M710 1676 c0 -2 7 -6 15 -10 8 -3 15 -1 15 4 0 6 -7 10 -15 10 -8 0
-15 -2 -15 -4z"/>
<path d="M758 1673 c7 -3 16 -2 19 1 4 3 -2 6 -13 5 -11 0 -14 -3 -6 -6z"/>
<path d="M798 1673 c6 -2 18 -2 25 0 6 3 1 5 -13 5 -14 0 -19 -2 -12 -5z"/>
<path d="M892 1655 c0 -16 2 -22 5 -12 2 9 2 23 0 30 -3 6 -5 -1 -5 -18z"/>
<path d="M1686 1658 c-13 -13 -27 -34 -30 -48 -4 -19 -2 -17 9 7 8 18 27 39
42 47 16 8 23 15 16 16 -7 0 -23 -10 -37 -22z"/>
<path d="M2210 1663 c0 -11 3 -14 8 -7 4 6 14 14 22 17 10 4 8 6 -7 6 -16 1
-23 -5 -23 -16z"/>
<path d="M2273 1673 c9 -2 23 -2 30 0 6 3 -1 5 -18 5 -16 0 -22 -2 -12 -5z"/>
<path d="M2348 1673 c6 -2 18 -2 25 0 6 3 1 5 -13 5 -14 0 -19 -2 -12 -5z"/>
<path d="M2405 1646 c10 -14 19 -26 22 -26 7 0 -17 39 -28 46 -6 3 -3 -5 6
-20z"/>
<path d="M1436 1652 c-2 -4 -1 -14 4 -22 7 -11 9 -9 7 8 -1 24 -3 26 -11 14z"/>
<path d="M732 1625 c0 -16 2 -22 5 -12 2 9 2 23 0 30 -3 6 -5 -1 -5 -18z"/>
<path d="M1105 1640 c3 -5 8 -10 11 -10 2 0 4 5 4 10 0 6 -5 10 -11 10 -5 0
-7 -4 -4 -10z"/>
<path d="M1361 1634 c0 -11 3 -14 6 -6 3 7 2 16 -1 19 -3 4 -6 -2 -5 -13z"/>
<path d="M2211 1624 c0 -11 3 -14 6 -6 3 7 2 16 -1 19 -3 4 -6 -2 -5 -13z"/>
<path d="M2285 1622 c-3 -3 -5 -19 -5 -36 0 -29 2 -31 36 -31 28 0 39 5 44 21
5 11 4 27 0 35 -9 13 -64 22 -75 11z"/>
<path d="M815 1603 c-11 -10 -14 -58 -4 -58 7 0 79 60 79 65 0 10 -64 5 -75
-7z"/>
<path d="M1742 1608 c-14 -14 -16 -78 -2 -78 6 0 10 -27 10 -62 0 -45 -3 -59
-10 -48 -6 9 -10 10 -10 3 0 -33 64 -56 98 -34 20 12 20 210 1 222 -20 13 -73
11 -87 -3z"/>
<path d="M1911 1604 c0 -11 3 -14 6 -6 3 7 2 16 -1 19 -3 4 -6 -2 -5 -13z"/>
<path d="M1362 1590 c0 -14 2 -19 5 -12 2 6 2 18 0 25 -3 6 -5 1 -5 -13z"/>
<path d="M1436 1602 c-2 -4 -1 -14 4 -22 7 -11 9 -9 7 8 -1 24 -3 26 -11 14z"/>
<path d="M2422 1585 c0 -16 2 -22 5 -12 2 9 2 23 0 30 -3 6 -5 -1 -5 -18z"/>
<path d="M1991 1584 c0 -11 3 -14 6 -6 3 7 2 16 -1 19 -3 4 -6 -2 -5 -13z"/>
<path d="M1105 1580 c3 -5 8 -10 11 -10 2 0 4 5 4 10 0 6 -5 10 -11 10 -5 0
-7 -4 -4 -10z"/>
<path d="M1912 1555 c0 -16 2 -22 5 -12 2 9 2 23 0 30 -3 6 -5 -1 -5 -18z"/>
<path d="M2212 1550 c0 -14 2 -19 5 -12 2 6 2 18 0 25 -3 6 -5 1 -5 -13z"/>
<path d="M731 1544 c0 -11 3 -14 6 -6 3 7 2 16 -1 19 -3 4 -6 -2 -5 -13z"/>
<path d="M1111 1544 c0 -11 3 -14 6 -6 3 7 2 16 -1 19 -3 4 -6 -2 -5 -13z"/>
<path d="M1362 1540 c0 -14 2 -19 5 -12 2 6 2 18 0 25 -3 6 -5 1 -5 -13z"/>
<path d="M1435 1550 c-3 -5 -1 -10 4 -10 6 0 11 5 11 10 0 6 -2 10 -4 10 -3 0
-8 -4 -11 -10z"/>
<path d="M1987 1545 c-4 -8 -3 -16 1 -19 4 -3 9 4 9 15 2 23 -3 25 -10 4z"/>
<path d="M1652 1530 c0 -14 2 -19 5 -12 2 6 2 18 0 25 -3 6 -5 1 -5 -13z"/>
<path d="M2410 1535 c0 -8 2 -15 4 -15 2 0 6 7 10 15 3 8 1 15 -4 15 -6 0 -10
-7 -10 -15z"/>
<path d="M2465 1540 c-3 -5 1 -10 10 -10 9 0 13 5 10 10 -3 6 -8 10 -10 10 -2
0 -7 -4 -10 -10z"/>
<path d="M805 1520 c3 -5 8 -10 11 -10 2 0 4 5 4 10 0 6 -5 10 -11 10 -5 0 -7
-4 -4 -10z"/>
<path d="M2505 1522 c30 -57 35 -65 35 -52 0 8 -10 26 -21 40 -11 14 -18 19
-14 12z"/>
<path d="M731 1504 c0 -11 3 -14 6 -6 3 7 2 16 -1 19 -3 4 -6 -2 -5 -13z"/>
<path d="M1111 1504 c0 -11 3 -14 6 -6 3 7 2 16 -1 19 -3 4 -6 -2 -5 -13z"/>
<path d="M1733 1480 c0 -25 2 -35 4 -22 2 12 2 32 0 45 -2 12 -4 2 -4 -23z"/>
<path d="M1912 1495 c0 -16 2 -22 5 -12 2 9 2 23 0 30 -3 6 -5 -1 -5 -18z"/>
<path d="M2210 1505 c0 -8 8 -11 20 -8 11 3 20 7 20 8 0 1 -9 5 -20 8 -12 3
-20 0 -20 -8z"/>
<path d="M2375 1509 c-17 -6 -15 -8 10 -8 53 -2 75 -25 77 -84 1 -46 2 -47 5
-13 3 22 2 49 -1 61 -7 27 -64 55 -91 44z"/>
<path d="M1361 1494 c0 -11 3 -14 6 -6 3 7 2 16 -1 19 -3 4 -6 -2 -5 -13z"/>
<path d="M2268 1503 c7 -3 16 -2 19 1 4 3 -2 6 -13 5 -11 0 -14 -3 -6 -6z"/>
<path d="M2313 1503 c9 -2 23 -2 30 0 6 3 -1 5 -18 5 -16 0 -22 -2 -12 -5z"/>
<path d="M1436 1492 c-2 -4 -1 -14 4 -22 7 -11 9 -9 7 8 -1 24 -3 26 -11 14z"/>
<path d="M811 1464 c0 -11 3 -14 6 -6 3 7 2 16 -1 19 -3 4 -6 -2 -5 -13z"/>
<path d="M1106 1467 c3 -10 9 -15 12 -12 3 3 0 11 -7 18 -10 9 -11 8 -5 -6z"/>
<path d="M1991 1464 c0 -11 3 -14 6 -6 3 7 2 16 -1 19 -3 4 -6 -2 -5 -13z"/>
<path d="M1363 1435 c0 -22 2 -30 4 -17 2 12 2 30 0 40 -3 9 -5 -1 -4 -23z"/>
<path d="M1652 1439 c-1 -16 -1 -29 2 -29 7 0 13 50 7 55 -4 2 -8 -10 -9 -26z"/>
<path d="M1911 1444 c0 -11 3 -14 6 -6 3 7 2 16 -1 19 -3 4 -6 -2 -5 -13z"/>
<path d="M2287 1453 c-14 -13 -7 -73 8 -74 70 -6 92 0 98 27 2 14 -1 31 -8 38
-14 13 -87 20 -98 9z"/>
<path d="M330 1439 c0 -5 5 -7 10 -4 6 3 10 8 10 11 0 2 -4 4 -10 4 -5 0 -10
-5 -10 -11z"/>
<path d="M732 1430 c0 -14 2 -19 5 -12 2 6 2 18 0 25 -3 6 -5 1 -5 -13z"/>
<path d="M2212 1430 c0 -14 2 -19 5 -12 2 6 2 18 0 25 -3 6 -5 1 -5 -13z"/>
<path d="M2533 1429 c-2 -23 3 -25 10 -4 4 8 3 16 -1 19 -4 3 -9 -4 -9 -15z"/>
<path d="M807 1433 c-11 -23 0 -38 28 -40 29 -1 29 -1 4 5 -17 5 -25 13 -23
25 2 18 -2 23 -9 10z"/>
<path d="M1992 1410 c0 -19 2 -27 5 -17 2 9 2 25 0 35 -3 9 -5 1 -5 -18z"/>
<path d="M1435 1420 c3 -5 8 -10 11 -10 2 0 4 5 4 10 0 6 -5 10 -11 10 -5 0
-7 -4 -4 -10z"/>
<path d="M1911 1402 c0 -13 -13 -34 -27 -48 -14 -15 -20 -24 -13 -22 22 7 51
55 46 74 -4 16 -5 15 -6 -4z"/>
<path d="M379 1398 c-2 -3 -8 -45 -11 -65 -1 -9 -5 -10 -15 -2 -7 6 -10 16 -6
22 4 6 1 7 -6 2 -9 -5 -10 -10 -2 -18 13 -13 15 -30 2 -23 -5 3 -8 -12 -7 -34
1 -34 -1 -38 -11 -24 -11 15 -12 14 -10 -5 1 -11 8 -23 15 -26 11 -4 12 -8 2
-20 -7 -8 -16 -12 -21 -9 -5 3 -6 -2 -3 -10 3 -9 10 -16 16 -16 5 0 6 5 2 12
-4 7 -3 8 5 4 9 -6 9 -11 0 -22 -9 -11 -8 -14 2 -14 11 0 11 -2 -1 -10 -13 -8
-12 -10 4 -10 20 0 20 0 0 -14 -10 -8 -16 -18 -11 -22 4 -4 7 -2 7 4 0 7 8 12
18 12 14 0 15 -2 2 -10 -11 -7 -11 -10 -2 -10 8 0 10 -5 6 -12 -6 -10 -5 -10
8 0 13 10 18 9 29 -5 13 -16 12 -17 -2 -5 -14 10 -18 10 -22 -1 -3 -9 2 -13
16 -12 12 1 28 -2 35 -8 7 -5 12 -6 12 0 0 5 -6 15 -12 22 -11 11 -10 12 0 6
7 -4 17 -17 22 -29 8 -20 9 -20 10 4 0 17 3 21 9 12 8 -14 32 -13 42 1 3 5 9
1 12 -8 5 -10 3 -14 -5 -9 -7 4 -8 3 -4 -4 10 -17 29 -15 23 3 -10 24 11 27
27 3 13 -18 16 -19 16 -6 0 9 5 20 12 24 7 4 8 3 4 -4 -4 -7 -2 -12 4 -12 6 0
8 -5 4 -12 -4 -7 -3 -8 5 -4 6 4 9 11 7 15 -3 4 9 7 27 6 18 -1 37 2 44 7 7 6
14 4 19 -3 4 -7 3 -9 -4 -5 -6 3 -13 3 -16 -2 -4 -7 23 -8 82 -3 6 1 12 6 12
11 0 7 -7 7 -22 0 -21 -10 -21 -10 -6 3 10 8 14 18 10 22 -4 5 -1 4 7 0 8 -5
27 -9 42 -9 23 -1 26 2 17 17 -5 10 -19 17 -31 17 -12 -1 -88 -2 -169 -1
l-148 1 -32 29 c-33 29 -33 30 -34 127 -1 62 -6 100 -13 102 -6 2 -11 8 -11
13 0 6 5 7 12 3 7 -4 8 -3 4 4 -7 11 -14 15 -17 10z"/>
<path d="M870 1396 c0 -2 7 -7 16 -10 8 -3 12 -2 9 4 -6 10 -25 14 -25 6z"/>
<path d="M1111 1390 c0 -21 19 -44 49 -59 23 -11 22 -10 -3 10 -16 12 -33 31
-37 43 -5 12 -9 15 -9 6z"/>
<path d="M1657 1380 c6 -22 48 -60 67 -60 6 0 -4 9 -21 20 -18 11 -33 26 -33
34 0 8 -4 17 -9 20 -5 4 -7 -3 -4 -14z"/>
<path d="M2211 1384 c0 -11 3 -14 6 -6 3 7 2 16 -1 19 -3 4 -6 -2 -5 -13z"/>
<path d="M1352 1370 c-18 -29 -15 -38 4 -12 9 13 14 25 12 27 -2 2 -9 -5 -16
-15z"/>
<path d="M730 1349 c0 -11 -4 -18 -9 -14 -5 3 -12 2 -15 -3 -2 -4 5 -8 18 -8
18 0 22 4 18 23 -5 29 -12 30 -12 2z"/>
<path d="M892 1350 c0 -14 2 -19 5 -12 2 6 2 18 0 25 -3 6 -5 1 -5 -13z"/>
<path d="M2445 1350 c-3 -5 -1 -10 4 -10 6 0 11 5 11 10 0 6 -2 10 -4 10 -3 0
-8 -4 -11 -10z"/>
<path d="M2206 1335 c4 -8 10 -12 15 -9 11 6 2 24 -11 24 -5 0 -7 -7 -4 -15z"/>
<path d="M670 1330 c0 -5 5 -10 11 -10 5 0 7 5 4 10 -3 6 -8 10 -11 10 -2 0
-4 -4 -4 -10z"/>
<path d="M796 1332 c-3 -5 1 -9 9 -9 8 0 12 4 9 9 -3 4 -7 8 -9 8 -2 0 -6 -4
-9 -8z"/>
<path d="M1288 1330 c-15 -4 -30 -5 -34 -1 -4 3 -4 1 0 -6 6 -11 60 -3 74 12
7 7 -7 5 -40 -5z"/>
<path d="M2270 1330 c0 -5 5 -10 11 -10 5 0 7 5 4 10 -3 6 -8 10 -11 10 -2 0
-4 -4 -4 -10z"/>
<path d="M2306 1332 c-3 -5 1 -9 9 -9 8 0 12 4 9 9 -3 4 -7 8 -9 8 -2 0 -6 -4
-9 -8z"/>
<path d="M2348 1328 c6 -6 18 -8 28 -6 14 3 12 5 -9 10 -19 3 -25 2 -19 -4z"/>
<path d="M2408 1333 c7 -3 16 -2 19 1 4 3 -2 6 -13 5 -11 0 -14 -3 -6 -6z"/>
<path d="M1210 1319 c0 -5 5 -7 10 -4 6 3 10 8 10 11 0 2 -4 4 -10 4 -5 0 -10
-5 -10 -11z"/>
<path d="M1750 1322 c0 -5 9 -8 20 -7 29 2 33 10 5 13 -14 1 -25 -2 -25 -6z"/>
<path d="M1818 1323 c6 -2 18 -2 25 0 6 3 1 5 -13 5 -14 0 -19 -2 -12 -5z"/>
<path d="M1406 1187 c-25 -20 -27 -26 -17 -45 7 -13 17 -19 23 -16 7 4 8 3 4
-4 -4 -7 -2 -12 3 -12 6 0 11 -5 11 -11 0 -5 -4 -8 -8 -5 -5 3 -9 -1 -9 -9 0
-11 4 -11 23 1 20 14 23 13 42 -11 11 -14 27 -25 36 -25 9 0 16 -4 16 -8 0 -5
7 -9 15 -9 23 0 18 7 -17 22 l-33 14 32 -2 c17 -1 29 -6 26 -11 -3 -4 5 -5 18
-1 13 3 20 3 14 -2 -5 -4 -11 -15 -13 -23 -2 -10 6 -6 24 10 15 14 24 20 20
13 -9 -17 14 -28 27 -13 9 10 9 11 -3 5 -8 -5 -11 -4 -7 0 10 12 38 15 31 4
-8 -14 8 -11 26 6 14 13 17 13 17 0 0 -8 -5 -11 -10 -8 -6 3 -7 1 -3 -5 4 -6
13 -9 21 -6 8 4 12 10 9 15 -3 5 2 6 10 3 9 -3 13 -11 9 -17 -3 -6 -1 -7 6 -3
8 6 9 11 1 21 -8 9 -5 11 15 7 14 -2 25 -9 25 -16 0 -6 5 -3 11 7 7 12 17 16
32 12 20 -5 20 -5 4 5 -14 9 -22 9 -33 0 -9 -9 -14 -9 -14 -1 0 13 44 25 64
18 11 -4 13 -1 9 10 -4 10 -2 14 5 9 6 -3 13 -2 17 4 3 5 12 10 18 10 8 0 8
-3 -2 -9 -9 -6 -10 -11 -2 -15 6 -4 8 -12 5 -18 -4 -7 -2 -8 5 -4 6 4 9 12 6
17 -3 5 1 6 10 3 9 -4 14 -9 11 -11 -6 -6 20 -34 30 -33 4 1 10 -4 14 -10 5
-8 9 -7 13 5 5 10 3 14 -5 9 -7 -5 -8 -3 -3 5 5 9 13 7 30 -9 23 -22 46 -20
44 3 0 9 -2 9 -6 0 -2 -7 -9 -13 -15 -13 -6 0 -6 6 2 15 10 12 15 12 36 -2 15
-9 24 -11 24 -4 0 6 5 11 11 11 5 0 7 -6 3 -12 -4 -7 1 -5 12 4 16 14 22 14
36 4 10 -7 17 -15 15 -17 -1 -2 6 5 16 16 10 11 16 15 13 8 -4 -6 -2 -14 4
-18 5 -3 10 -1 10 4 0 6 5 11 11 11 5 0 8 -4 5 -8 -3 -5 7 -8 22 -6 15 1 32 2
39 3 7 1 10 8 6 19 -5 14 -3 13 10 -3 15 -18 16 -18 17 -2 0 9 4 17 10 17 5 0
6 -8 3 -17 -6 -15 -5 -15 16 -1 13 9 31 14 40 11 13 -4 13 -3 2 5 -7 5 -10 15
-6 22 6 9 9 9 16 -1 7 -12 10 -12 21 0 10 10 10 12 1 7 -7 -4 -13 -4 -13 1 0
4 -90 8 -199 8 l-199 0 -22 25 c-12 14 -26 32 -30 40 -7 12 -14 10 -42 -16
-52 -49 -90 -59 -218 -59 -101 0 -121 3 -164 24 -27 13 -61 37 -76 53 -15 15
-29 28 -31 28 -2 0 -17 -10 -33 -23z m564 -122 c0 -8 -2 -15 -4 -15 -2 0 -6 7
-10 15 -3 8 -1 15 4 15 6 0 10 -7 10 -15z"/>
<path d="M880 1150 c-18 -16 -39 -30 -46 -30 -8 0 -11 -6 -7 -16 5 -13 7 -13
14 -2 7 10 9 11 9 0 0 -7 5 -10 10 -7 6 4 7 11 4 17 -4 6 4 3 18 -8 14 -10 24
-22 21 -26 -7 -12 12 -9 24 3 7 7 10 3 8 -15 -2 -15 1 -24 6 -20 5 3 7 9 4 14
-3 5 0 12 6 16 7 4 9 3 6 -3 -4 -6 2 -18 12 -27 14 -13 21 -14 27 -5 5 8 3 10
-6 4 -9 -5 -11 -4 -6 3 4 7 15 8 30 2 16 -6 27 -5 35 3 9 9 11 8 6 -4 -5 -12
-1 -16 17 -14 13 1 23 3 23 5 0 1 11 3 25 4 37 4 54 10 63 21 5 6 7 4 4 -5 -2
-8 -10 -15 -17 -15 -7 0 -15 -7 -17 -15 -4 -13 -3 -13 6 0 6 8 11 11 11 6 0
-5 7 -3 15 4 10 9 15 9 15 1 0 -6 9 -2 20 9 23 23 26 35 8 24 -7 -4 -10 -3 -5
1 4 5 16 9 27 10 15 1 17 -1 8 -12 -6 -7 -8 -16 -4 -20 3 -3 6 -1 6 5 0 7 7
12 16 12 11 0 14 5 10 16 -5 13 -3 14 7 6 10 -8 13 -6 14 9 2 16 -2 19 -20 13
-12 -4 -38 -9 -57 -10 -19 -1 -37 -3 -40 -4 -3 -1 -8 -2 -13 -1 -4 1 -36 3
-70 5 -63 4 -145 34 -168 62 -16 19 -21 18 -59 -16z"/>
<path d="M2490 1160 c-9 -6 -10 -10 -3 -10 6 0 15 5 18 10 8 12 4 12 -15 0z"/>
<path d="M1360 1139 c0 -5 -4 -7 -10 -4 -6 4 -7 -1 -3 -11 4 -10 8 -13 10 -7
3 7 11 9 19 6 10 -4 12 0 8 11 -7 18 -24 22 -24 5z"/>
<path d="M2447 1136 c-17 -13 -16 -14 6 -12 15 0 23 6 20 14 -6 14 -4 15 -26
-2z"/>
<path d="M1323 1115 c0 -8 4 -12 9 -9 5 3 6 10 3 15 -9 13 -12 11 -12 -6z"/>
<path d="M1385 1100 c3 -5 8 -10 11 -10 2 0 4 5 4 10 0 6 -5 10 -11 10 -5 0
-7 -4 -4 -10z"/>
<path d="M1450 1086 c0 -4 7 -14 15 -22 8 -9 15 -11 15 -6 0 5 -7 15 -15 22
-8 7 -15 9 -15 6z"/>
<path d="M2136 1051 c-4 -5 -2 -12 3 -15 5 -4 12 -2 15 3 4 5 2 12 -3 15 -5 4
-12 2 -15 -3z"/>
<path d="M650 1041 c0 -6 4 -13 10 -16 6 -3 7 1 4 9 -7 18 -14 21 -14 7z"/>
</g>
</svg>
